<?xml version="1.0" encoding="utf-8"?>
<!-- Generator: Adobe Illustrator 26.0.3, SVG Export Plug-In . SVG Version: 6.00 Build 0)  -->
<svg version="1.1" id="Layer_1" xmlns="http://www.w3.org/2000/svg" xmlns:xlink="http://www.w3.org/1999/xlink" x="0px" y="0px"
	 viewBox="0 0 480.5 398" style="enable-background:new 0 0 480.5 398;" xml:space="preserve">
<style type="text/css">
	.st0{fill:#FFFFFF;}
</style>
<polygon class="st0" points="111.2,153.2 111.2,110.5 0,110.5 0,153.2 25.5,153.2 25.5,244.3 0,244.3 0,286.9 111.2,286.9 
	111.2,244.3 85.7,244.3 85.7,153.2 "/>
<path class="st0" d="M234,178.2c-6.9-2-42.2-12.1-48.4-14.1s-11.1-4.9-11.1-8.5s5.6-7.5,17-7.5c35.9,0,53.1,22.1,53.1,22.1
	s1.9,2.6,2.6,3.5h34.6v-60.4h-37.2v11c-2.8-2-23.8-15.6-56.3-15.6c-42.9,0-66.8,22.3-66.8,55.5s30.1,47,38.5,50.5
	s41.1,12.8,55.1,17.1s19.1,7.5,19.1,9.8s-6.1,8.1-23.6,8.1c-30.5,0-46.2-18-48.9-21.5v0c-0.9-1.2-1.9-2.6-2.3-3.1
	c-0.4-0.6-1.3-1.9-2-2.9h-34.6v64.5h38.9v-13.5c4.5,3,27.7,17.4,55.4,17.4c31,0,70.5-13.5,70.5-55.6S240.9,180.2,234,178.2z"/>
<path class="st0" d="M386.4,108.1c-51.7,0-94.1,25.8-94.1,91.8s46,90.7,94.3,90.7s93.8-24.5,93.8-90S434.9,108.1,386.4,108.1z
	 M386.8,246.6c-17.7,0-29-4.1-29-46.9c0-42.8,8.4-47.4,29.7-47.4c12.9,0,28.6,0.9,28.6,46S404.5,246.6,386.8,246.6z"/>
<g>
	<path class="st0" d="M74.1,91.1c11.6-17.2,25.9-32.4,42.3-45c6.6,4.9,13.7,9.3,21.1,13.3c-12.4,13.8-23.5,29.1-25.3,31.7h7.4
		c4.5-6,13.7-18.1,23.4-28.9c10.6,5.2,22,9.5,33.8,12.8c-3.1,6.7-5.5,12.5-6.9,16.1h6.5c1.5-3.7,3.7-8.9,6.4-14.5
		c15.1,3.7,30.8,5.7,47,6.1v8.5h6v-8.5c16-0.1,31.7-1.9,46.7-5.4c2.6,5.4,4.6,10.3,6,13.8h6.5c-1.3-3.4-3.6-9-6.5-15.3
		c12-3.1,23.5-7.3,34.4-12.4c9.4,10.4,18.1,21.9,22.4,27.7h7.4c-1.8-2.5-12.3-17-24.3-30.5c8.2-4.3,16-9.1,23.3-14.5
		c16.4,12.6,30.7,27.8,42.3,45h7.2C365.7,36.3,304,0,234,0S102.4,36.3,66.9,91.1L74.1,91.1L74.1,91.1z M179.4,69.5
		c-11.2-3-22-7-32.2-11.9c1.4-1.4,2.8-2.8,4.1-4.1c13.9-13.4,36.8-28.1,41.8-31.3c4.1,2.2,8.5,4.1,13.2,5.6
		c-3.7,4.8-10.9,14.6-18.7,27C184.7,59.6,181.9,64.7,179.4,69.5z M229.7,76.6c-15.2-0.3-30.1-2.2-44.3-5.6c2.2-4.3,4.7-8.8,7.4-13
		c9-14.3,17.2-25,19.9-28.5c5.4,1.3,11.1,2.1,17,2.3L229.7,76.6L229.7,76.6z M235.7,76.6V31.9c5.8-0.1,11.4-0.7,16.9-1.8
		c3.1,4,10.9,14.3,19.4,27.9c2.8,4.4,5.4,9.2,7.7,13.7C265.5,74.8,250.7,76.5,235.7,76.6z M285.7,70.3c-2.5-5.1-5.5-10.4-8.7-15.5
		c-7.4-11.7-14.3-21.1-18.1-26.2c5-1.4,9.8-3.2,14.1-5.5c7,4.5,27.5,18,40.3,30.4c1.7,1.6,3.4,3.4,5.2,5.2
		C308.1,63.5,297.1,67.4,285.7,70.3z M346.6,42.3c-7,5.1-14.6,9.6-22.5,13.6c-2.2-2.4-4.4-4.7-6.7-6.8c-12-11.6-29.9-23.7-38.6-29.4
		c3-1.9,5.7-4.1,8.1-6.4C308.7,19.6,328.8,29.5,346.6,42.3z M234,6c15.8,0,31.2,1.9,46,5.6c-11.2,9.1-28,14.4-46,14.4
		c-18.1,0-34.8-5.3-46-14.4C202.8,7.9,218.2,6,234,6z M181.1,13.4c2,1.9,4.1,3.7,6.5,5.3c-7.9,5.1-27.5,18.1-40.3,30.5
		c-1.8,1.8-3.7,3.7-5.6,5.6c-7.1-3.7-13.9-7.9-20.2-12.5C139.3,29.5,159.4,19.6,181.1,13.4z"/>
	<path class="st0" d="M393.9,306.9c-11.4,16.8-25.3,31.7-41.2,44.2c-7.6-5.7-15.7-10.8-24.4-15.3c10.4-11.7,19.7-24.2,23.1-28.9H344
		c-4.6,6.1-12.7,16.6-21.2,26.1c-10.9-5.2-22.4-9.3-34.4-12.4c2.5-5.4,4.5-10.3,5.9-13.7h-6.5c-1.4,3.4-3.2,7.6-5.4,12.2
		c-15-3.4-30.7-5.3-46.7-5.4v-6.9h-6v6.9c-16.2,0.3-31.9,2.4-47,6c-2.3-4.9-4.3-9.4-5.7-13h-6.5c1.4,3.6,3.6,8.7,6.3,14.5
		c-11.8,3.3-23.1,7.5-33.8,12.8c-8.9-9.9-17.5-20.9-22.2-27.3h-7.5c3.6,4.9,13.4,18.1,24.2,30.1c-7.8,4.2-15.2,8.9-22.1,14.1
		c-15.9-12.5-29.9-27.4-41.2-44.2h-7.2C102.4,361.7,164,398,234,398c70,0,131.6-36.3,167.1-91.1L393.9,306.9L393.9,306.9z
		 M285.7,326.1c11.4,2.9,22.4,6.8,32.8,11.6c-1.7,1.8-3.5,3.6-5.2,5.2c-12.8,12.3-33.2,25.8-40.3,30.3c-4.4-2.2-9.1-4.1-14.1-5.5
		c3.8-5.1,10.7-14.4,18.1-26.1C280.2,336.6,283.1,331.2,285.7,326.1z M235.7,319.8c15.1,0.1,29.9,1.8,44,4.9
		c-2.3,4.6-4.9,9.3-7.7,13.7c-8.5,13.5-16.3,23.8-19.4,27.8c-5.4-1.1-11.1-1.7-16.9-1.8L235.7,319.8L235.7,319.8z M229.7,319.8v44.7
		c-5.9,0.3-11.6,1.1-17,2.3c-2.7-3.5-10.9-14.2-19.9-28.4c-2.7-4.2-5.2-8.7-7.4-13C199.6,322,214.4,320.1,229.7,319.8z M179.4,326.9
		c2.4,4.9,5.2,9.9,8.3,14.7c7.8,12.4,15,22.1,18.7,26.9c-4.7,1.5-9.2,3.4-13.2,5.6c-5-3.2-27.9-17.9-41.8-31.3
		c-1.4-1.3-2.7-2.7-4.1-4.1C157.4,333.9,168.2,329.9,179.4,326.9z M120.3,354.9c6.7-4.9,13.8-9.3,21.3-13.3c1.9,2,3.7,3.9,5.6,5.6
		c12.8,12.4,32.4,25.4,40.3,30.5c-2.8,2-5.4,4.2-7.7,6.5C158.2,377.9,138.1,367.9,120.3,354.9z M234,392c-16.4,0-32.3-2.1-47.4-5.9
		c11.1-9.7,28.7-15.6,47.4-15.6c18.7,0,36.3,5.9,47.4,15.6C266.3,390,250.4,392,234,392z M288.2,384.3c-2.7-2.8-5.8-5.4-9.3-7.6
		c8.8-5.7,26.6-17.8,38.6-29.4c2.2-2.1,4.4-4.4,6.7-6.8c8.3,4.2,16.2,9,23.6,14.4C329.9,367.9,309.9,377.9,288.2,384.3z"/>
</g>
</svg>
