<?xml version="1.0" encoding="utf-8"?>
<!-- Generator: Adobe Illustrator 26.0.3, SVG Export Plug-In . SVG Version: 6.00 Build 0)  -->
<svg version="1.1" id="Capa_1" xmlns="http://www.w3.org/2000/svg" xmlns:xlink="http://www.w3.org/1999/xlink" x="0px" y="0px"
	 viewBox="0 0 472.3 205.6" style="enable-background:new 0 0 472.3 205.6;" xml:space="preserve">
<g>
	<path d="M0,8.2c0-2.2,1.8-4,4-4h72.6c19.9,0,36.6,6.5,50.1,19.4c13.5,13,20.3,29.5,20.3,49.6c0,20.1-6.8,36.6-20.3,49.6
		c-13.5,13-30.2,19.4-50.1,19.4H50.4v55.1c0,2.2-1.8,4-4,4H4c-2.2,0-4-1.8-4-4V8.2z M50.4,94.3h26.2c5.6,0,10.4-2,14.2-5.9
		c3.8-3.9,5.8-9,5.8-15.2c0-6.2-1.9-11.2-5.8-15.1c-3.9-3.8-8.6-5.8-14.2-5.8H50.4V94.3z"/>
	<path d="M205.8,125v29h72.3c2.2,0,4,1.8,4,4v39.4c0,2.2-1.8,4-4,4H159.4c-2.2,0-4-1.8-4-4V8.2c0-2.2,1.8-4,4-4h117.4
		c2.2,0,4,1.8,4,4v39.1c0,2.2-1.8,4-4,4h-70.9v27.3h63.9c2.2,0,4,1.8,4,4v38.5c0,2.2-1.8,4-4,4H205.8z"/>
	<path d="M388.6,205.6c-29.7,0-54.3-9.8-73.8-29.3c-19.3-19.5-29-44-29-73.5c0-29.5,9.7-53.9,29-73.2C334.2,9.9,358.8,0,388.6,0
		c17.8,0,34.4,4.2,49.6,12.7c13.9,7.7,25,17.9,33.4,30.4c1.3,1.9,0.7,4.6-1.3,5.8l-36.6,21c-1.8,1.1-4.2,0.5-5.3-1.3
		c-3.6-5.4-8.6-9.9-14.8-13.3c-7.4-4-15.7-6.1-24.9-6.1c-15.6,0-28.3,5-38.3,14.9c-9.6,10-14.4,22.8-14.4,38.6
		c0,16.1,4.8,29.1,14.4,38.9c9.8,9.8,22.5,14.6,38.3,14.6c9.2,0,17.5-2,24.9-6.1c6.2-3.4,11.2-7.9,14.8-13.5
		c1.2-1.8,3.5-2.4,5.4-1.3l36.6,21.3c2,1.2,2.6,3.8,1.3,5.7c-8.4,12.7-19.5,22.9-33.3,30.6C423.2,201.4,406.6,205.6,388.6,205.6z"/>
</g>
</svg>
